<svg width="2022" height="1280" xmlns="http://www.w3.org/2000/svg"><g fill="none" fill-rule="evenodd"><path stroke-opacity=".2" stroke="#106369" fill="#FFF" d="M1038.5 1110.5h983v167h-983z"/><text font-family="PingFangSC-Medium, PingFang SC" font-size="12" font-weight="400" fill="#106369" transform="translate(1505 1130)"><tspan x="9" y="13">提升增删改项目的交互效率、简化流程、减少步长，包括选择项目、使用优</tspan> <tspan x="9" y="30">惠、水单状态流转和操作</tspan></text><text font-family="PingFangSC-Regular, PingFang SC" font-size="10" fill="#000" transform="translate(1505 1130)"><tspan x="0" y="13">• </tspan></text><text font-family="PingFangSC-Medium, PingFang SC" font-size="12" font-weight="400" fill="#106369" transform="translate(1058 1213)"><tspan x="9" y="13">员工在开单时需要关注顾客已选的服务，还有自己的业绩提成</tspan></text><text font-family="PingFangSC-Regular, PingFang SC" font-size="10" fill="#000" transform="translate(1058 1213)"><tspan x="0" y="13">• </tspan></text><text font-family="PingFangSC-Medium, PingFang SC" font-size="12" font-weight="400" fill="#106369" transform="translate(1058 1238)"><tspan x="9" y="13">开单和结账时都可以查看顾客有什么优惠可用</tspan></text><text font-family="PingFangSC-Regular, PingFang SC" font-size="10" fill="#000" transform="translate(1058 1238)"><tspan x="0" y="13">• </tspan></text><text font-family="PingFangSC-Medium, PingFang SC" font-size="12" font-weight="400" fill="#106369" transform="translate(1058 1184)"><tspan x="9" y="13">员工在开单时可以给顾客充值、开卡等，无需重新退出当前重新操作一遍</tspan></text><text font-family="PingFangSC-Regular, PingFang SC" font-size="10" fill="#000" transform="translate(1058 1184)"><tspan x="0" y="13">• </tspan></text><text font-family="PingFangSC-Medium, PingFang SC" font-size="12" font-weight="400" fill="#106369" transform="translate(1505 1176)"><tspan x="9" y="13">优化查看水单和取单的方式</tspan></text><text font-family="PingFangSC-Regular, PingFang SC" font-size="10" fill="#000" transform="translate(1505 1176)"><tspan x="0" y="13">• </tspan></text><text font-family="PingFangSC-Medium, PingFang SC" font-size="12" font-weight="400" fill="#106369" transform="translate(1505 1205)"><tspan x="9" y="13">减少员工修改待支付订单的成本(现在跟重新开单没差别)</tspan></text><text font-family="PingFangSC-Regular, PingFang SC" font-size="10" fill="#000" transform="translate(1505 1205)"><tspan x="0" y="13">• </tspan></text><text font-family="PingFangSC-Medium, PingFang SC" font-size="12" font-weight="400" fill="#106369" transform="translate(1505 1234)"><tspan x="9" y="13">支付方式提供自定义配置</tspan></text><text font-family="PingFangSC-Regular, PingFang SC" font-size="10" fill="#000" transform="translate(1505 1234)"><tspan x="0" y="13">• </tspan></text><text font-family="PingFangSC-Medium, PingFang SC" font-size="12" font-weight="400" fill="#106369" transform="translate(1058 1130)"><tspan x="9" y="13">选择散客的操作需要强化视觉焦点</tspan></text><text font-family="PingFangSC-Regular, PingFang SC" font-size="10" fill="#000" transform="translate(1058 1130)"><tspan x="0" y="13">• </tspan></text><text font-family="PingFangSC-Medium, PingFang SC" font-size="12" font-weight="400" fill="#106369" transform="translate(1058 1159)"><tspan x="9" y="13">开单后，可以重新更换会员</tspan></text><text font-family="PingFangSC-Regular, PingFang SC" font-size="10" fill="#000" transform="translate(1058 1159)"><tspan x="0" y="13">• </tspan></text><text font-family="PingFangSC-Medium, PingFang SC" font-size="12" font-weight="400" fill="#106369" transform="translate(1231 1159)"><tspan x="9" y="13">开单主页要优先显示顾客信息和已选项目</tspan></text><text font-family="PingFangSC-Regular, PingFang SC" font-size="10" fill="#000" transform="translate(1231 1159)"><tspan x="0" y="13">• </tspan></text><path fill="#F4F4F4" d="M0 1080h100v200H0z"/><text font-family="PingFangSC-Medium, PingFang SC" font-size="14" font-weight="400" fill="#000" transform="translate(0 1080)"><tspan x="20" y="107">机会点</tspan></text><path stroke-opacity=".2" stroke="#106369" fill="#FFF" d="M112.5 1110.5h449v167h-449z"/><text font-family="PingFangSC-Medium, PingFang SC" font-size="12" font-weight="400" fill="#106369" transform="translate(132 1130)"><tspan x="9" y="13">信息结构和可交互元素的设计要符合移动端的交互标准</tspan></text><text font-family="PingFangSC-Regular, PingFang SC" font-size="10" fill="#000" transform="translate(132 1130)"><tspan x="0" y="13">• </tspan></text><text font-family="PingFangSC-Medium, PingFang SC" font-size="12" font-weight="400" fill="#106369" transform="translate(132 1159)"><tspan x="9" y="13">信息呈现的设计要注意层级关系和对比突出</tspan></text><text font-family="PingFangSC-Regular, PingFang SC" font-size="10" fill="#000" transform="translate(132 1159)"><tspan x="0" y="13">• </tspan></text><path stroke-opacity=".2" stroke="#106369" fill="#FFF" d="M572.5 1110.5h455v167h-455z"/><text font-family="PingFangSC-Medium, PingFang SC" font-size="12" font-weight="400" fill="#106369" transform="translate(588 1159)"><tspan x="9" y="13">在服务开始前，助理、发型师、技师查看了解会员的信息、消费记录、会员卡</tspan> <tspan x="9" y="30">信息、备注等，以便给顾客提供更优质的服务，并且可以找切入点让顾客充值</tspan> <tspan x="9" y="47">买套餐</tspan></text><text font-family="PingFangSC-Regular, PingFang SC" font-size="10" fill="#000" transform="translate(588 1159)"><tspan x="0" y="13">• </tspan></text><text font-family="PingFangSC-Medium, PingFang SC" font-size="12" font-weight="400" fill="#106369" transform="translate(588 1130)"><tspan x="9" y="13">员工能随时给顾客开单、购买商品、疗程，提升业绩提成</tspan></text><text font-family="PingFangSC-Regular, PingFang SC" font-size="10" fill="#000" transform="translate(588 1130)"><tspan x="0" y="13">• </tspan></text><g><text font-family="PingFangSC-Medium, PingFang SC" font-size="12" font-weight="400" fill="#106369" transform="translate(588 1222)"><tspan x="9" y="13">在给顾客介绍会员、套餐时，可以查看并给顾客展示相关权益详情</tspan></text><text font-family="PingFangSC-Regular, PingFang SC" font-size="10" fill="#000" transform="translate(588 1222)"><tspan x="0" y="13">• </tspan></text></g><g transform="translate(112 1080)" fill="#106369"><rect x="32" y="5" width="418" height="10" rx="2"/><text font-family="PingFangSC-Medium, PingFang SC" font-size="14" font-weight="400"><tspan x="0" y="15">全局</tspan></text></g><g transform="translate(572 1080)" fill="#106369"><rect x="113" y="5" width="343" height="10" rx="2"/><text font-family="PingFangSC-Medium, PingFang SC" font-size="14" font-weight="400"><tspan x="0" y="15">接待、洗头、服务</tspan></text></g><g transform="translate(1038 1080)" fill="#106369"><rect x="78" y="5" width="906" height="10" rx="2"/><text font-family="PingFangSC-Medium, PingFang SC" font-size="14" font-weight="400"><tspan x="0" y="15">开单、结算</tspan></text></g><g><path stroke="#EDECEB" fill="#F4F4F4" d="M1038.5 76.5h486v249h-486z"/><g fill="#000" font-family="PingFangSC-Regular, PingFang SC"><text font-size="10" transform="translate(1058 150)"><tspan x="0" y="13">• </tspan></text><text font-size="12" transform="translate(1058 150)"><tspan x="9" y="13">选择顾客（散客、会员-需要搜索）</tspan></text><text font-size="10" transform="translate(1058 175)"><tspan x="0" y="13">• </tspan></text><text font-size="12" transform="translate(1058 175)"><tspan x="9" y="13">添加项目或商品</tspan></text><text font-size="10" transform="translate(1058 200)"><tspan x="0" y="13">• </tspan></text><text font-size="12" transform="translate(1058 200)"><tspan x="9" y="13">修改价格、数量；使用优惠；</tspan></text><g><text font-size="10" transform="translate(1058 225)"><tspan x="0" y="13">• </tspan></text><text font-size="12" transform="translate(1058 225)"><tspan x="9" y="13">给顾客开卡、充值、购买疗程</tspan></text></g><g><text font-size="10" transform="translate(1058 250)"><tspan x="0" y="13">• </tspan></text><text font-size="12" transform="translate(1058 250)"><tspan x="9" y="13">填写订单号/手牌号</tspan></text></g><g><text font-size="10" transform="translate(1058 275)"><tspan x="0" y="13">• </tspan></text><text font-size="12" transform="translate(1058 275)"><tspan x="9" y="13">提交开单（待服务完成后结算，或直接结算）</tspan></text></g></g><text font-family="AppleColorEmoji, Apple Color Emoji" font-size="36" fill="#000" transform="translate(1038 76)"><tspan x="32" y="50">🤳🏻</tspan></text></g><g><path stroke="#EDECEB" fill="#F4F4F4" d="M110.5 76.5h917v249h-917z"/><g fill="#000" font-family="PingFangSC-Regular, PingFang SC"><text font-size="10" transform="translate(596 150)"><tspan x="0" y="13">• </tspan></text><text font-size="12" transform="translate(596 150)"><tspan x="9" y="13">发型师询问顾客有什么要求</tspan></text><text font-size="10" transform="translate(596 175)"><tspan x="0" y="13">• </tspan></text><text font-size="12" transform="translate(596 175)"><tspan x="9" y="13">发型师/技师 给顾客提供服务，有的服务需要不同员工负责不同的步骤</tspan></text><g><text font-size="10" transform="translate(596 200)"><tspan x="0" y="13">• </tspan></text><text font-size="12" transform="translate(596 200)"><tspan x="9" y="13">服务过程中闲聊，发型师/技师找机会向顾客推荐套餐、开卡、充值等</tspan></text></g></g><g fill="#000" font-family="PingFangSC-Regular, PingFang SC"><text font-size="10" transform="translate(130 150)"><tspan x="0" y="13">• </tspan></text><text font-size="12" transform="translate(130 150)"><tspan x="9" y="13">聊天了解需要具体要做什么服务（剪发、造型、烫染、美容…)</tspan></text><text font-size="10" transform="translate(130 175)"><tspan x="0" y="13">• </tspan></text><text font-size="12" transform="translate(130 175)"><tspan x="9" y="13">问顾客有无熟悉的发型师/技师，洗完头后指定安排</tspan></text><text font-size="10" transform="translate(130 200)"><tspan x="0" y="13">• </tspan></text><text font-size="12" transform="translate(130 200)"><tspan x="9" y="13">问顾客有无会员卡，是否要办卡或充值</tspan></text><g><text font-size="10" transform="translate(130 225)"><tspan x="0" y="13">• </tspan></text><text font-size="12" transform="translate(130 225)"><tspan x="9" y="13">推荐套餐</tspan></text></g><g><text font-size="10" transform="translate(130 250)"><tspan x="0" y="13">• </tspan></text><text font-size="12" transform="translate(130 250)"><tspan x="9" y="13">洗完头后，叫发型师/技师准备</tspan></text></g></g><text font-family="AppleColorEmoji, Apple Color Emoji" font-size="36" fill="#000" transform="translate(110 76)"><tspan x="20" y="50">💆🏻‍♀️</tspan></text><text font-family="AppleColorEmoji, Apple Color Emoji" font-size="36" fill="#000" transform="translate(110 76)"><tspan x="485" y="50">💇🏻‍♀️</tspan></text></g><g><path stroke="#EDECEB" fill="#F4F4F4" d="M1535.5 76.5h486v249h-486z"/><g font-size="12"><text font-family="PingFangSC-Semibold, PingFang SC" font-weight="500" fill="#121212" transform="translate(1555 140)"><tspan x="0" y="13">取单○</tspan></text><text font-family="PingFangSC-Regular, PingFang SC" fill="#000" transform="translate(1555 140)"><tspan x="0" y="34">• 从待支付订单中通过搜索会员/筛选员工找到顾客的订单</tspan></text></g><text font-family="PingFangSC-Semibold, PingFang SC" font-size="12" font-weight="500" fill="#121212" transform="translate(1555 190)"><tspan x="0" y="13">正式结账前</tspan></text><g fill="#000" font-family="PingFangSC-Regular, PingFang SC"><text font-size="10" transform="translate(1555 212)"><tspan x="0" y="13">• </tspan></text><text font-size="12" transform="translate(1555 212)"><tspan x="9" y="13">增删服务</tspan></text></g><g fill="#000" font-family="PingFangSC-Regular, PingFang SC"><text font-size="10" transform="translate(1555 233)"><tspan x="0" y="13">• </tspan></text><text font-size="12" transform="translate(1555 233)"><tspan x="9" y="13">改价、优惠、服务员工、业绩提成等</tspan></text></g><g><text font-family="PingFangSC-Semibold, PingFang SC" font-size="12" font-weight="500" fill="#121212" transform="translate(1555 264)"><tspan x="0" y="13">确认结账</tspan></text><g fill="#000" font-family="PingFangSC-Regular, PingFang SC"><text font-size="10" transform="translate(1555 285)"><tspan x="0" y="13">• </tspan></text><text font-size="12" transform="translate(1555 285)"><tspan x="9" y="13">选择支付方式，可多选，完成结账</tspan></text></g></g><text font-family="AppleColorEmoji, Apple Color Emoji" font-size="36" fill="#000" transform="translate(1535 76)"><tspan x="20" y="50">💴</tspan></text></g><g><path stroke="#EDECEB" fill="#FFF" d="M1038.5 336.5h486v159h-486z"/><g fill="#000" font-family="PingFangSC-Regular, PingFang SC"><text font-size="10" transform="translate(1058 356)"><tspan x="0" y="13">• </tspan></text><text font-size="12" transform="translate(1058 356)"><tspan x="9" y="13">除了手机号，还能通过姓名搜索会员吗？</tspan></text><text font-size="10" transform="translate(1058 381)"><tspan x="0" y="13">• </tspan></text><text font-size="12" transform="translate(1058 381)"><tspan x="9" y="13">订单的顾客信息不对，怎样重新选择顾客？</tspan></text><g><text font-size="10" transform="translate(1058 406)"><tspan x="0" y="13">• </tspan></text><text font-size="12" transform="translate(1058 406)"><tspan x="9" y="13">怎么修改已选服务的优惠、价格等信息？</tspan></text></g><g><text font-size="10" transform="translate(1058 431)"><tspan x="0" y="13">• </tspan></text><text font-size="12" transform="translate(1058 431)"><tspan x="9" y="13">顾客还会不会增加服务或加购商品/套餐？</tspan></text></g></g></g><g><path stroke="#EDECEB" fill="#FFF" d="M574.5 336.5h453v159h-453z"/><g fill="#000" font-family="PingFangSC-Regular, PingFang SC"><text font-size="10" transform="translate(594 356)"><tspan x="0" y="11">• </tspan></text><text font-size="12" transform="translate(594 356)"><tspan x="9" y="13">这位顾客这次对发型会有什么要求？</tspan></text><text font-size="10" transform="translate(594 381)"><tspan x="0" y="11">• </tspan></text><text font-size="12" transform="translate(594 381)"><tspan x="9" y="13">有什么疗程套餐会适合 Ta？</tspan></text><text font-size="10" transform="translate(594 406)"><tspan x="0" y="11">• </tspan></text><text font-size="12" transform="translate(594 406)"><tspan x="9" y="13">忘了上次来做服务的时候好像有哪些地方没达到预期？</tspan></text><g><text font-size="10" transform="translate(594 431)"><tspan x="0" y="11">• </tspan></text><text font-size="12" transform="translate(594 431)"><tspan x="9" y="13">之前没见过，是新客吗？开会员了没有？</tspan></text></g><g><text font-size="10" transform="translate(594 456)"><tspan x="0" y="11">• </tspan></text><text font-size="12" transform="translate(594 456)"><tspan x="9" y="13">这位熟客上次充值的用完了没有，是时候提醒充个值吗？</tspan></text></g></g></g><g><path stroke="#EDECEB" fill="#FFF" d="M110.5 336.5h453v159h-453z"/><g fill="#000" font-family="PingFangSC-Regular, PingFang SC"><text font-size="10" transform="translate(130 356)"><tspan x="0" y="11">• </tspan></text><text font-size="12" transform="translate(130 356)"><tspan x="9" y="13">顾客会选什么价位的发型师？ </tspan></text><text font-size="10" transform="translate(130 381)"><tspan x="0" y="11">• </tspan></text><text font-size="12" transform="translate(130 381)"><tspan x="9" y="13">顾客是会员吗？</tspan></text><text font-size="10" transform="translate(130 406)"><tspan x="0" y="11">• </tspan></text><text font-size="12" transform="translate(130 406)"><tspan x="9" y="13">顾客会员卡还有多少余额？要不要充值？近期有活动</tspan></text><g><text font-size="10" transform="translate(130 431)"><tspan x="0" y="11">• </tspan></text><text font-size="12" transform="translate(130 431)"><tspan x="9" y="13">顾客会在这里办卡成为会员吗？想拿业绩提成</tspan></text></g><g><text font-size="10" transform="translate(130 456)"><tspan x="0" y="11">• </tspan></text><text font-size="12" transform="translate(130 456)"><tspan x="9" y="13">要不要给 Ta 推荐一下这里的其它服务项目</tspan></text></g></g></g><g><path stroke="#EDECEB" fill="#FFF" d="M1535.5 336.5h486v159h-486z"/><g fill="#000" font-family="PingFangSC-Regular, PingFang SC"><text font-size="10" transform="translate(1555 356)"><tspan x="0" y="13">• </tspan></text><text font-size="12" transform="translate(1555 356)"><tspan x="9" y="13">顾客临时加购了一些商品，怎么一起结账？</tspan></text></g><g fill="#000" font-family="PingFangSC-Regular, PingFang SC"><text font-size="10" transform="translate(1555 381)"><tspan x="0" y="13">• </tspan></text><text font-size="12" transform="translate(1555 381)"><tspan x="9" y="13">能不能同时使用多种支付方试</tspan></text></g><g fill="#000" font-family="PingFangSC-Regular, PingFang SC"><text font-size="10" transform="translate(1555 406)"><tspan x="0" y="13">• </tspan></text><text font-size="12" transform="translate(1555 406)"><tspan x="9" y="13">帮顾客充值后，怎样快捷再给它的服务结账？</tspan></text></g><g fill="#000" font-family="PingFangSC-Regular, PingFang SC"><text font-size="10" transform="translate(1555 431)"><tspan x="0" y="11">• </tspan></text><text font-size="12" transform="translate(1555 431)"><tspan x="9" y="14">订单的顾客信息不对，怎么修改？</tspan></text></g></g><g><path d="M110.5 656.5h453v409h-453z" fill="#FFF" stroke="#EDECEB"/><g fill="#000" font-family="PingFangSC-Regular, PingFang SC"><text font-size="10" transform="translate(124 704)"><tspan x="0" y="13">• </tspan></text><text font-size="12" transform="translate(124 704)"><tspan x="9" y="13">顾客有开卡、充值意愿时，但没来得及帮 Ta 操作，被下面接手的人给截糊了</tspan></text></g><g fill="#000" font-family="PingFangSC-Regular, PingFang SC"><text font-size="10" transform="translate(124 729)"><tspan x="0" y="13">• </tspan></text><text font-size="12" transform="translate(124 729)"><tspan x="9" y="13">新人员工可能忘掉了折扣信息、套餐内容，跟顾客说不清</tspan></text></g><g transform="translate(190 674)"><rect stroke="#F4F4F6" fill="#F5F5F5" x="-.5" y="-.5" width="59" height="21" rx="3"/><text font-family="PingFangSC-Medium, PingFang SC" font-size="10" font-weight="400" fill="#5F6EEF"><tspan x="9" y="14">套餐详情</tspan></text></g><g transform="translate(256 674)"><rect stroke="#F4F4F6" fill="#F5F5F5" x="-.5" y="-.5" width="59" height="21" rx="3"/><text font-family="PingFangSC-Medium, PingFang SC" font-size="10" font-weight="400" fill="#5F6EEF"><tspan x="9" y="14">优惠内容</tspan></text></g><g transform="translate(124 674)"><rect stroke="#F4F4F6" fill="#F5F5F5" x="-.5" y="-.5" width="59" height="21" rx="3"/><text font-family="PingFangSC-Medium, PingFang SC" font-size="10" font-weight="400" fill="#5F6EEF"><tspan x="9" y="14">开单功能</tspan></text></g></g><g><path stroke="#EDECEB" fill="#FFF" d="M574.5 656.5h453v409h-453z"/><g fill="#000" font-family="PingFangSC-Regular, PingFang SC"><text font-size="12" transform="translate(594 704)"><tspan x="9" y="13">在服务开始前，无法对顾客的画像有了解，比如消费行为记录、备注记录</tspan> <tspan x="9" y="30">等，很难精准地了解顾客的需要</tspan></text><text font-size="10" transform="translate(594 704)"><tspan x="0" y="13">• </tspan></text></g><g fill="#000" font-family="PingFangSC-Regular, PingFang SC"><text font-size="12" transform="translate(594 746)"><tspan x="9" y="13">常联系的熟客，在非工作时间想购买套餐商品时，无法即时下单成交</tspan></text><text font-size="10" transform="translate(594 746)"><tspan x="0" y="13">• </tspan></text></g><g transform="translate(594 674)"><rect stroke="#F4F4F6" fill="#F5F5F5" x="-.5" y="-.5" width="59" height="21" rx="3"/><text font-family="PingFangSC-Medium, PingFang SC" font-size="10" font-weight="400" fill="#5F6EEF"><tspan x="9" y="14">会员详情</tspan></text></g><g transform="translate(662 674)"><rect stroke="#F4F4F6" fill="#F5F5F5" x="-.5" y="-.5" width="59" height="21" rx="3"/><text font-family="PingFangSC-Medium, PingFang SC" font-size="10" font-weight="400" fill="#5F6EEF"><tspan x="9" y="14">开单功能</tspan></text></g></g><g><path stroke="#EDECEB" fill="#FFF" d="M1038.5 656.5h486v409h-486z"/><g fill="#000" font-family="PingFangSC-Regular, PingFang SC"><text font-size="10" transform="translate(1054 704)"><tspan x="0" y="13">• </tspan></text><text font-size="12" transform="translate(1054 704)"><tspan x="9" y="13">想要搜索会员，但输入完会员手机号后不知道接下来要怎么操作</tspan></text><text font-size="10" transform="translate(1054 729)"><tspan x="0" y="13">• </tspan></text><text font-size="12" transform="translate(1054 729)"><tspan x="9" y="13">直接点击开单没反应，点开卡也没有反应（原来要先输入手机号）</tspan></text><g><text font-size="10" transform="translate(1054 754)"><tspan x="0" y="13">• </tspan></text><text font-size="12" transform="translate(1054 754)"><tspan x="9" y="13">散客太不明显，很难注意到</tspan></text></g><g><text font-size="10" transform="translate(1054 779)"><tspan x="0" y="13">• </tspan></text><text font-size="12" transform="translate(1054 779)"><tspan x="9" y="13">手机号输入错了，无法在结果页面修改</tspan></text></g></g><g transform="translate(1054 674)"><rect stroke="#F4F4F6" fill="#F5F5F5" x="-.5" y="-.5" width="59" height="21" rx="3"/><text font-family="PingFangSC-Medium, PingFang SC" font-size="10" font-weight="400" fill="#5F6EEF"><tspan x="9" y="14">收银主页</tspan></text></g><g transform="translate(1122 674)"><rect stroke="#F4F4F6" fill="#F5F5F5" x="-.5" y="-.5" width="61" height="21" rx="3"/><text font-family="PingFangSC-Medium, PingFang SC" font-size="10" font-weight="400" fill="#5F6EEF"><tspan x="5" y="14">搜索结果页</tspan></text></g><g fill="#000" font-family="PingFangSC-Regular, PingFang SC"><text font-size="10" transform="translate(1054 850)"><tspan x="0" y="13">• </tspan></text><text font-size="12" transform="translate(1054 850)"><tspan x="9" y="13">已选择的项目被隐藏得太深了</tspan></text><text font-size="10" transform="translate(1054 875)"><tspan x="0" y="13">• </tspan></text><text font-size="12" transform="translate(1054 875)"><tspan x="9" y="13">已选项目添加了指定发型师后，查看不到，也修改不了</tspan></text><text font-size="10" transform="translate(1054 925)"><tspan x="0" y="30">• </tspan></text><text font-size="12" transform="translate(1054 925)"><tspan x="9" y="13">选择错了会员或会员卡，不能更换会员，也不能重新选择会员卡，只能把订单删掉</tspan> <tspan x="9" y="30">并重新开单</tspan></text><g><text font-size="10" transform="translate(1054 967)"><tspan x="0" y="30">• </tspan></text><text font-size="12" transform="translate(1054 967)"><tspan x="9" y="13">在选择项目或商品的时候，如果要给顾客开卡或充值，我要离开当前操作页面，然</tspan> <tspan x="9" y="30">后要重新输入手机号搜索会员才参开卡充值。</tspan></text></g><g><text font-size="10" transform="translate(1054 900)"><tspan x="0" y="13">• </tspan></text><text font-size="12" transform="translate(1054 900)"><tspan x="9" y="13">选择服务项目之后，改不了价格、改不了服务员工，优惠没得看也没得选择</tspan></text></g></g></g><g transform="translate(1054 824)"><rect stroke="#F4F4F6" fill="#F5F5F5" x="-.5" y="-.5" width="101" height="21" rx="3"/><text font-family="PingFangSC-Medium, PingFang SC" font-size="10" font-weight="400" fill="#5F6EEF"><tspan x="9" y="14">选择项目/商品页面</tspan></text></g><g transform="translate(1164 824)"><rect stroke="#F4F4F6" fill="#F5F5F5" x="-.5" y="-.5" width="151" height="21" rx="3"/><text font-family="PingFangSC-Medium, PingFang SC" font-size="10" font-weight="400" fill="#5F6EEF"><tspan x="10" y="14">开卡、充值、购买疗程、还款</tspan></text></g><g><path stroke="#EDECEB" fill="#FFF" d="M1535.5 656.5h486v409h-486z"/><g fill="#000" font-family="PingFangSC-Regular, PingFang SC"><text font-size="10" transform="translate(1551 704)"><tspan x="0" y="13">• </tspan></text><text font-size="12" transform="translate(1551 704)"><tspan x="9" y="13">待支付订单在较多的时候，比较难找到某位顾客的待支付的订单</tspan></text></g><g fill="#000" font-family="PingFangSC-Regular, PingFang SC"><text font-size="10" transform="translate(1551 767)"><tspan x="0" y="13">• </tspan></text><text font-size="12" transform="translate(1551 767)"><tspan x="9" y="13">新加一个项目，要跳转好多页面，还要重新填写订单号</tspan></text><text font-size="10" transform="translate(1551 792)"><tspan x="0" y="13">• </tspan></text><text font-size="12" transform="translate(1551 792)"><tspan x="9" y="13">顾客加了一个项目，但找不到入口操作（添加入口不明显）</tspan></text><text font-size="10" transform="translate(1551 817)"><tspan x="0" y="13">• </tspan></text><text font-size="12" transform="translate(1551 817)"><tspan x="9" y="13">顾客追加了一个商品，但是改不了购买数量</tspan></text><text font-size="10" transform="translate(1551 842)"><tspan x="0" y="13">• </tspan></text><text font-size="12" transform="translate(1551 842)"><tspan x="9" y="13">改价、选择优惠，要从不同的地方操作，太分散了</tspan></text><text font-size="10" transform="translate(1551 867)"><tspan x="0" y="13">• </tspan></text><text font-size="12" transform="translate(1551 867)"><tspan x="9" y="13">备注、撤单、性别、改价经常误点或点击后反应</tspan></text><g><text font-size="10" transform="translate(1551 892)"><tspan x="0" y="13">• </tspan></text><text font-size="12" transform="translate(1551 892)"><tspan x="9" y="13">删除和改价放在太近，有时只想改个价格，却把项目给删掉了</tspan></text></g><g><text font-size="10" transform="translate(1551 917)"><tspan x="0" y="13">• </tspan></text><text font-size="12" transform="translate(1551 917)"><tspan x="9" y="13">记客和再开一单，靠得太近，好怕点错</tspan></text></g><g><text font-size="10" transform="translate(1551 942)"><tspan x="0" y="13">• </tspan></text><text font-size="12" transform="translate(1551 942)"><tspan x="9" y="13">再开一单，要重新输入会员手机号和重新选会员</tspan></text></g><g><text font-size="10" transform="translate(1551 967)"><tspan x="0" y="13">• </tspan></text><text font-size="12" transform="translate(1551 967)"><tspan x="9" y="13">选优惠，emmmmm，所有优惠都直接平铺出来很不好找</tspan></text></g></g><g fill="#000" font-family="PingFangSC-Regular, PingFang SC"><text font-size="10" transform="translate(1553 1030)"><tspan x="0" y="13">• </tspan></text><text font-size="12" transform="translate(1553 1030)"><tspan x="9" y="13">选择支付方式的时候，很难选择中，要点好几次</tspan></text></g><g transform="translate(1551 674)"><rect stroke="#F4F4F6" fill="#F5F5F5" x="-.5" y="-.5" width="89" height="21" rx="3"/><text font-family="PingFangSC-Medium, PingFang SC" font-size="10" font-weight="400" fill="#5F6EEF"><tspan x="9" y="14">待支付订单列表</tspan></text></g><g transform="translate(1551 737)"><rect stroke="#F4F4F6" fill="#F5F5F5" x="-.5" y="-.5" width="89" height="21" rx="3"/><text font-family="PingFangSC-Medium, PingFang SC" font-size="10" font-weight="400" fill="#5F6EEF"><tspan x="9" y="14">待支付订单详情</tspan></text></g><g transform="translate(1551 1002)"><rect stroke="#F4F4F6" fill="#F5F5F5" x="-.5" y="-.5" width="49" height="21" rx="3"/><text font-family="PingFangSC-Medium, PingFang SC" font-size="10" font-weight="400" fill="#5F6EEF"><tspan x="9" y="14">结账页</tspan></text></g></g><g><path fill="#F4F4F4" d="M0 0h100v30H0z"/><text font-family="PingFangSC-Medium, PingFang SC" font-size="14" font-weight="400" fill="#000"><tspan x="20" y="23">步骤</tspan></text></g><g><path fill="#F4F4F4" d="M0 38h100v30H0z"/><text font-family="PingFangSC-Medium, PingFang SC" font-size="14" font-weight="400" fill="#000" transform="translate(0 38)"><tspan x="20" y="23">目标</tspan></text></g><g><path stroke="#EDECEB" fill="#FFF" d="M110.5 38.5h453v29h-453z"/><text font-family="PingFangSC-Regular, PingFang SC" font-size="12" fill="#000" transform="translate(110 38)"><tspan x="13" y="20">服务准备、了解顾客需要做什么服务、引导新客成为会员、助理开单</tspan></text></g><g><path stroke="#EDECEB" fill="#FFF" d="M574.5 38.5h453v29h-453z"/><text font-family="PingFangSC-Regular, PingFang SC" font-size="12" fill="#000" transform="translate(574 38)"><tspan x="13" y="20">跟顾客沟通需求、服务顾客、引导顾客消费</tspan></text></g><g><path stroke="#EDECEB" fill="#FFF" d="M1038.5 38.5h486v29h-486z"/><text font-family="PingFangSC-Regular, PingFang SC" font-size="12" fill="#000" transform="translate(1038 38)"><tspan x="13" y="20">查找会员、创建订单、添加服务项目、修改项目服务信息、开卡、充值等</tspan></text></g><g><path stroke="#EDECEB" fill="#FFF" d="M1535.5 38.5h486v29h-486z"/><text font-family="PingFangSC-Regular, PingFang SC" font-size="12" fill="#000" transform="translate(1535 38)"><tspan x="13" y="20">快捷取单、修改订单信息、完成结账</tspan></text></g><g><path fill="#F4F4F4" d="M0 336h100v160H0z"/><text font-family="PingFangSC-Medium, PingFang SC" font-size="14" font-weight="400" fill="#000" transform="translate(0 336)"><tspan x="20" y="88">想法</tspan></text></g><g><path fill="#F4F4F4" d="M0 506h100v140H0z"/><text font-family="PingFangSC-Medium, PingFang SC" font-size="14" font-weight="400" fill="#000" transform="translate(0 506)"><tspan x="20" y="78">感受</tspan></text></g><g><path fill="#F4F4F4" d="M0 656h100v408H0z"/><text font-family="PingFangSC-Medium, PingFang SC" font-size="14" font-weight="400" fill="#000" transform="translate(0 656)"><tspan x="20" y="210.921">痛点</tspan></text></g><g><path fill="#F4F4F4" d="M0 76h100v250H0z"/><text font-family="PingFangSC-Medium, PingFang SC" font-size="14" font-weight="400" fill="#000" transform="translate(0 76)"><tspan x="20" y="127">行为</tspan></text></g><g><path d="M110 30V0h456l14 15-14 15H110z" fill="#121212"/><text font-family="PingFangSC-Medium, PingFang SC" font-size="14" font-weight="400" fill="#FFF" transform="translate(110)"><tspan x="14" y="23">接待 / 洗头</tspan></text></g><g><path d="M570 30l14-15-14-15h456l14 15-14 15H570z" fill="#121212"/><text font-family="PingFangSC-Medium, PingFang SC" font-size="14" font-weight="400" fill="#FFF" transform="translate(570)"><tspan x="24" y="23">提供服务</tspan></text></g><g><path d="M1030 30l14-15-14-15h488l14 15-14 15h-488z" fill="#121212"/><text font-family="PingFangSC-Medium, PingFang SC" font-size="14" font-weight="400" fill="#FFF" transform="translate(1030)"><tspan x="24" y="23">开单</tspan></text></g><g><path d="M2022 0v30h-500l14-15-14-15h500z" fill="#121212"/><text font-family="PingFangSC-Medium, PingFang SC" font-size="14" font-weight="400" fill="#FFF" transform="translate(1522)"><tspan x="24" y="23">结算</tspan></text></g><g><text font-family="PingFangSC-Regular, PingFang SC" font-size="12" fill="#525252" transform="translate(1535 506)"><tspan x="17" y="44">• 把支付方式都平铺出来，可以快速选择，还能多种方式同</tspan> <tspan x="17" y="61">时使用</tspan></text><path stroke="#EDECEB" fill="#FFF" d="M1535.5 506.5h486v139h-486z"/><g fill="#000" font-family="PingFangSC-Regular, PingFang SC"><text font-size="10" transform="translate(1555 526)"><tspan x="0" y="13">• </tspan></text><text font-size="12" transform="translate(1555 526)"><tspan x="9" y="13">结账找订单时不好找</tspan></text><text font-size="10" transform="translate(1555 551)"><tspan x="0" y="13">• </tspan></text><text font-size="12" transform="translate(1555 551)"><tspan x="9" y="13">新加项目/商品的操作好繁锁，可交互元素距离太近经常按错</tspan></text><g><text font-size="10" transform="translate(1555 576)"><tspan x="0" y="13">• </tspan></text><text font-size="12" transform="translate(1555 576)"><tspan x="9" y="13">结账时大多数其实是用一两种的，全放出来有时容易看错选错</tspan></text></g><g><text font-size="10" transform="translate(1555 601)"><tspan x="0" y="13">• </tspan></text><text font-size="12" transform="translate(1555 601)"><tspan x="9" y="13">有时候明明是点击过了，但是界面没反应</tspan></text></g></g></g><g><text font-family="PingFangSC-Regular, PingFang SC" font-size="12" fill="#525252" transform="translate(1039 506)"><tspan x="17" y="48">• 把支付方式都平铺出来，可以快速选择，还能多种方式同</tspan> <tspan x="17" y="65">时使用</tspan></text><path stroke="#EDECEB" fill="#FFF" d="M1039.5 506.5h486v139h-486z"/><g fill="#000" font-family="PingFangSC-Regular, PingFang SC"><text font-size="10" transform="translate(1059 526)"><tspan x="0" y="13">• </tspan></text><text font-size="12" transform="translate(1059 526)"><tspan x="9" y="13">用了很多次，但经常找不到散客开单</tspan></text><text font-size="10" transform="translate(1059 551)"><tspan x="0" y="13">• </tspan></text><text font-size="12" transform="translate(1059 551)"><tspan x="9" y="13">选错了会员就要删掉重新选过，让人很抓狂</tspan></text><g><text font-size="10" transform="translate(1059 576)"><tspan x="0" y="13">• </tspan></text><text font-size="12" transform="translate(1059 576)"><tspan x="9" y="13">从添加项目到改信息，好有挫折感，经常忘了怎么用</tspan></text></g><g><text font-size="10" transform="translate(1059 601)"><tspan x="0" y="13">• </tspan></text><text font-size="12" transform="translate(1059 601)"><tspan x="9" y="13">界面反应很迟顿</tspan></text></g></g></g><g><path stroke="#EDECEB" fill="#FFF" d="M110.5 506.5h453v139h-453z"/><g fill="#000" font-family="PingFangSC-Regular, PingFang SC"><text font-size="10" transform="translate(130 526)"><tspan x="0" y="11">• </tspan></text><text font-size="12" transform="translate(130 526)"><tspan x="9" y="13">想了解顾客的消费信息和习惯，一般都是要主动去问Ta，不方便而且感觉会</tspan> <tspan x="9" y="30">打扰侵犯到了客户</tspan></text></g><g fill="#000" font-family="PingFangSC-Regular, PingFang SC"><text font-size="10" transform="translate(130 568)"><tspan x="0" y="11">• </tspan></text><text font-size="12" transform="translate(130 568)"><tspan x="9" y="13">想给顾客推荐一些适合的服务或套餐，切入比较困难</tspan></text></g><g fill="#000" font-family="PingFangSC-Regular, PingFang SC"><text font-size="10" transform="translate(130 593)"><tspan x="0" y="11">• </tspan></text><text font-size="12" transform="translate(130 593)"><tspan x="9" y="13">如果不及时开单，忙起来的时候容易把顾客的服务、指定发型师给忘记掉</tspan></text></g></g><g><path stroke="#EDECEB" fill="#FFF" d="M574.5 506.5h453v139h-453z"/><g fill="#000" font-family="PingFangSC-Regular, PingFang SC"><text font-size="10" transform="translate(594 526)"><tspan x="0" y="11">• </tspan></text><text font-size="12" transform="translate(594 526)"><tspan x="9" y="13">想了解顾客的以往的造型需要和习惯，一般都是要主动去问 Ta</tspan></text></g><g fill="#000" font-family="PingFangSC-Regular, PingFang SC"><text font-size="10" transform="translate(594 551)"><tspan x="0" y="11">• </tspan></text><text font-size="12" transform="translate(594 551)"><tspan x="9" y="13">顾客的想法和意见有时挺难get到</tspan></text></g><g fill="#000" font-family="PingFangSC-Regular, PingFang SC"><text font-size="10" transform="translate(594 576)"><tspan x="0" y="11">• </tspan></text><text font-size="12" transform="translate(594 576)"><tspan x="9" y="13">在服务的过程中如果能让顾客答应买套餐、充值，会找时间让Ta 先把这</tspan> <tspan x="9" y="30">部分的单给结算</tspan></text></g></g></g></svg>